<?xml version="1.0" encoding="UTF-8"?>
<svg id="a" data-name="Layer 1" xmlns="http://www.w3.org/2000/svg" viewBox="0 0 311.02 316.1">
  <path d="M154.36,83.28c-41.74,0-75.58,33.84-75.58,75.58s33.84,75.58,75.58,75.58,75.58-33.84,75.58-75.58-33.84-75.58-75.58-75.58ZM154.36,200.61c-23.02,0-41.74-18.73-41.74-41.74s18.73-41.74,41.74-41.74,41.74,18.73,41.74,41.74-18.73,41.74-41.74,41.74Z" style="fill: #9f82bc;"/>
  <polygon points="274.84 112.76 274.84 94.86 269.94 100.58 274.84 112.76" style="fill: none;"/>
  <path d="M179.17.44c-14.83,1.49-33.86-2.1-48.07.58h49.9c-.31-.06-1.09-.89-1.83-.58Z" style="fill: #986843;"/>
  <path d="M272.12,131.73l27.1,4.92.06,43.13-1.12,2.41c.33-.15,1.03.04,1.37-.51v-45.06s-26.86-5.42-26.86-5.42c0,.04-.48.3-.55.53Z" style="fill: #fdbe58;"/>
  <path d="M299.22,136.65l-27.1-4.92c.07-.23.56-.49.55-.53-.03-.22-2.18-2.27-2.8-3.43-3.37-6.26-9.35-20.2-11.56-26.95-.61-1.87-1.21-2.83-.28-4.87-1.03.92-3.32.26-3.74.61-.16.13-1.17,3.58-1.19,4.01-.09,1.87,1.45,2.96.86,4.6-3.5-5.52-4.82-7.73-.8-13.27,3.75-5.18,9.61-9.52,13.56-14.67,1.11-.5,5.21,1.73,4.89,3.25-3.5,4.81-8.08,8.98-12.24,13.3-.49.51-.87,1.4-1.14,1.88,1.01-1.26,5.23-4.78,6.29-5.93,1.44-1.57,2.91-3.88,4.36-5.43,1.52-1.62,6.56-4.89,6.5-7.07-.03-1.07-6.78-7.25-8.11-8.67-1.99-2.13-3.93-4.54-5.98-6.77-1.45-1.58-3.54-3.27-5.07-4.94-1.77-1.94-9.4-12.2-11.03-12.33-4.87,3.15-21.09,18.69-25.92,18.84-1.21.04.24-.06-1.04-.15.13-1.43-.05-.57.2-.87l-.02-4.86c-9.09-2.17-17.8-5.76-26.55-8.98-.79-.29-1.72-.07-2.29-.28-1.72-.64-2.86-4.37-3.32-6.03-2.5-9.02-3.35-19.2-5.87-28.3-.6-1.77-4.91-.87-5.22.31-.05.2.32,4.03.43,4.22.03.05.81-.22,1.06.4l5.98,27.81c-1.58-1.53-1.9-4.86-2.44-7.04-1.64-6.61-2.94-13.34-4.09-20.05l-37.6.04c-1.74.59-1.56,11.89-3.05,14.03,0,.18,0,.36,0,.54-.04,1.52.62,3.72-1.08,3.25-.38,2.05-1.07,10.97-2.28,11.82-.76.53-2.86-.13-3.56,1.7l-37.42,13.5c-4.4.39-14.2-11.17-17.78-13.99-.92-.73-2.32-2.18-3.25-1.14l-23.49,25.38c-.32,1.06-.04,1.76.33,2.72,1.65,4.23,8.21,11.98,10.85,16.81.87,1.59,2.34,3.4,2.26,5.26l-15.41,35.05c-.36.68-.74,1.41-1.34,1.92-3.17,2.7-14.91,2.73-19.28,4.04-.27.11-.3.27-.28.53,0,.08.48.28.55.53l-5.43.56-.4,24.68c.11,4.34.13,7.96-.15,9.49v.54c3.81.18,14.49,2.82,18.45,4.06,6.24,1.97,6.22,2.9,8.77,8.58,2.93,6.53,5.54,13.3,8.31,19.89-1.02-.64-.88-.38-1.39-1.35-1.13-2.18-1.86-4.35-3.31-6.42-.72-1.02-2.35-1.6-2.88-3.09-.82-2.34.13-4.52-1.46-7.21-.25-.42-3.65-3.85-4.03-4.08-2.06-1.27-3.24-.03-5.23-.18-3.99-.3-16.87-3.31-20.95-4.6-3.21-1.01-1.95-2.63-2.26-5.06-.08-.65-.5-1.33-.57-2.4-.76-12.11.61-25.01.02-37.19-.29.73-.48.76-.58,1.84-.92,10.15-.69,28.28.02,38.6.17,2.56-.02,3.96,2.61,4.99,5.07,1.98,20.98,3.01,24.02,5.81.48.44.88.95,1.17,1.54,2.45,9,10.3,19.49,12.65,28.03.3,1.1.34,2.15.26,3.27,1.13.47,2.31.69,3.45,1.16.6.25,2.7.87,2.43,1.73l-12.94,20.44,23.72,24.31,3.05-.53c5.19-3.71,9.78-8.49,15.04-12.08,4.61-3.14,4.92-2.92,10.08-.96,7.97,3.02,22.27,9.5,29.59,13.68.26.15,2.73,2.02,2.84,2.15.5.59,2.19,4.6,1.9,4.87-1.55.36-2.44-1.33-3.65-1.55-1.27-.23-2.31.66-3.53.37-6.16-1.46-18.95-9.41-25.7-12.32-4.32-1.86-5.32-3.28-9.55-.59-2.78,1.77-5.91,5.23-8.02,7.03,3.58-1.25,8.4-7.87,12.14-7.58l31.23,14.38c.88.57,1.19,1.34,1.5,2.29,2.18,6.53,1.83,16.53,3.64,23.48.26.99.71,2.25,1.77,2.57l47.07.09c.44-.04.81-.2,1.15-.47,2.07-1.64,3.32-23.62,5.61-27.48,10.43-5.56,21.44-10.18,32.3-14.92.81-.06,1.42.31,2.1.65,6.11,3.1,13.32,10.98,19.34,14.83,3.16,1.44,6.16-1.38,8.41-3.5,1.68-1.58,2.8-3.41,4.31-4.91,6.56-6.56,13.3-12.97,19.82-19.51-7.94,7.87-16.64,16-24.98,23.57-3,2.72-2.99,5.33-8.51,2.62l-18.39-14.18-2.09-.65-32.44,14.65c-2.84,2.44-4.03,21.47-5.4,26.2-.15.52-.81,2.04-1.22,2.04h-45.29c.68-1.27-2.16-5.97.27-5.97h40.95c1.75-6.93,1.82-14.97,4.06-21.7.72-2.16,1.5-4.44,3.7-5.52,10.19-4.48,20.14-9.77,30.39-14.09,1.5-.63,4.62-2.11,6.07-2.1,1.92.02,4.57,2.42,6.17,3.6,4.02,2.94,9.89,9.13,13.66,11.29.9.52,2.34,1.06,3.36.78.98-.27,12.77-12.45,14.51-14.28l9.78-10.29c1.23-1.52.02-3.73-.92-5.12-3.92-5.79-9.78-11.31-13.76-16.74-2.58-3.52-3.12-3.88-1.53-7.92,2.92-7.43,10.63-22.1,14.83-29.11,2.85-4.76,3.83-4.71,9.05-6.13,6.72-1.83,13.76-2.5,20.52-4.16v-34.17h1.08v33.36c0,.35,3.57,5.08,1.64,6.53-4.58,1.52-24.51,3.5-26.96,6.4-4,7.28-7.12,15.06-10.87,22.46-.48.95-2.97,3.97-3.36,4.91-.52,1.23-.81,3.45-.05,4.62,5.74,7.13,11.13,14.11,16.27,21.67.77,1.13,2.68,1.15,1.96,3.67-.06.21-1.75,3.03-1.95,3.25,1.12-1.45,3.89-2.59,2.86-4.72-5.24-7.92-12.8-15.56-17.73-23.54-.59-.96-1.51-2.06-1.18-3.21l14.19-27.61c1.46-2.26,4.35-2.43,6.73-3.03,5.93-1.5,16.77-2.27,21.7-4.6l1.12-2.41-.06-43.13ZM54.35,210.39v-.54c.35.18.35.36,0,.54ZM54.89,212.02v-.54c.35.18.35.36,0,.54ZM182.9,47.67c.35.18.35.36,0,.54v-.54ZM237.67,192.49c-12.81,31.71-44.28,54.91-78.65,56.95-8.68.52-14.72.25-21.97-4.62-.8-.54-1.63.23-.54-1.34-52.27-10.2-80.58-64.29-63.47-114.18,18.51-53.98,83.11-74.9,129.9-43.66,21.54,14.38,35.64,38.71,37.7,64.54l-3.4-14.5c-1.44-.22-1.96-2.25-2.56-2.63-.73-.46-1.91.55-2.17.32-.23-.21-1.42-4.77-1.92-5.96-4.6-10.87-12.18-22.05-21.13-29.86-.71-.62-1.51-.97-2.45-1.07,23.72,19.38,34.39,53.4,25.88,83.11-8.32,29.05-33.85,53.29-63.85,58.46.32,1.62-.78.98-1.8,1.16-7.67,1.4-16.18,1.66-23.7-.08-7.34-1.69-14.72-3.3-21.68-6.26-5.98-2.54-11.31-6.14-16.83-9.47,4.93,4.21,9.73,7.3,15.75,10.02,1.52.69,8.36,2.67,8.67,3.01.14.15-1.68,1.72,1.77,2.83,2.17.7,3.88.03,5.43.41.52.13.66,1.51,1.97,1.95,1.8.6,4.76.31,6.69.9.96.29,1.06,1.29,2.81,1.53,16.52,2.25,37.41-4.85,51.47-13.14.37-.22,1.85-1.4,1.99-.46,18.27-12.03,31.71-31.79,36.62-53.15,1.68-7.29,2.77-14.74,2.44-22.24,1.55-.29.87.42,1.23,1.19,4.05,8.77-.64,27.38-4.22,36.23ZM253.8,106.07l.92-.47,2.16,4.2-.92.47-2.16-4.2ZM259.11,117.91c-1.03-2.23-2.19-4.92-2.71-7.32,2.46,2.39,3.26,6.57,4.33,9.76-.82-.13-1.29-1.73-1.62-2.44ZM260.74,120.9c1.66,1.27,2.16,4.04,2.7,5.96l-2.7-5.96Z" style="fill: #f79026;"/>
  <path d="M11.75,174.91c.07,1.07.48,1.76.57,2.4,1.74.6,4.82-.6,5.97-.54v-.54l.15-9.49c-.25-9.72-.97-23.08.1-24.7.63-.96,3.97-1.17,5.17-1.06-.03-.26,0-.43.28-.53,4.38-1.32,16.11-1.35,19.28-4.04.6-.51.98-1.24,1.34-1.92l15.41-35.05c.08-1.86-1.39-3.68-2.26-5.26-2.64-4.84-9.2-12.59-10.85-16.81-.37-.96-.65-1.66-.33-2.72l23.49-25.38c.93-1.04,2.33.42,3.25,1.14,3.57,2.82,13.38,14.37,17.78,13.99l37.42-13.5c.7-1.83,2.8-1.17,3.56-1.7,1.22-.85,1.9-9.77,2.28-11.82.2-1.06.35-2.44,1.08-3.25,0-.18,0-.36,0-.54.12-2.25.66-13.94,2.52-14.57l37.62-.62c-.1-.19-.48-4.01-.43-4.22.31-1.18,4.62-2.09,5.22-.31,2.52,9.11,3.37,19.28,5.87,28.3.46,1.66,1.6,5.4,3.32,6.03.56.21,1.5,0,2.29.28,8.75,3.22,17.47,6.81,26.55,8.98l.02,4.86c-.25.3-.07-.56-.2.87,1.28.09-.17.19,1.04.15,4.83-.15,21.05-15.69,25.92-18.84,1.62.13,9.26,10.39,11.03,12.33,1.53,1.68,3.61,3.36,5.07,4.94l-18.73-21.15c-1.36-.19-2.48-.03-3.71.61-4.51,2.33-11.42,9.38-16.11,12.63-2.76,1.91-3.41,2.93-7.03,2.24-8.31-1.58-18-7.36-26.52-9.27-.89-.53-1.2-1.35-1.51-2.29-2.94-8.93-3.11-21.82-6.25-30.09-.43-1.14-.7-1.92-2-2.34l-45.75-.12c-1.21.35-2.28,1.04-2.55,2.34-1.97,8.61-2.08,18.47-3.94,26.98-.33,1.51-.97,2.87-2.45,3.51l-33.45,12.06c-4.03-.25-14.96-13.67-19.31-15.96-3.17-1.1-4,.12-5.96,2.13-4.62,4.74-8.81,10.04-13.27,14.94-2.12,2.32-14.01,13.96-14.3,15.58-.24,1.32.25,1.82.71,2.88,2.86,6.52,9.4,13.76,12.88,20.19,1.26,2.61-.21,4.87-1.11,7.27-3.3,8.78-8.57,16.92-11.56,25.87-.58,1.05-1.42,1.47-2.51,1.83-6.94,2.28-16.26,2.2-23.46,4.2-1.37.28-1.25,1.01-1.61,1.91.59,12.19-.78,25.09-.02,37.19Z" style="fill: #fdbe58;"/>
  <path d="M271.58,241.99c-5.14-7.56-10.52-14.54-16.27-21.67-.76-1.17-.47-3.39.05-4.62.39-.94,2.88-3.96,3.36-4.91,3.76-7.4,6.87-15.17,10.87-22.46,2.44-2.9,22.38-4.88,26.96-6.4,1.93-1.45-1.64-6.17-1.64-6.53v-33.36h-1.08v34.17c-6.75,1.67-13.8,2.33-20.52,4.16-5.22,1.42-6.2,1.37-9.05,6.13-4.2,7.01-11.91,21.68-14.83,29.11-1.59,4.04-1.04,4.41,1.53,7.92,3.98,5.43,9.84,10.95,13.76,16.74.94,1.39,2.16,3.61.92,5.12l-9.78,10.29c-1.74,1.83-13.53,14.01-14.51,14.28-1.02.28-2.46-.26-3.36-.78-3.76-2.16-9.63-8.35-13.66-11.29-1.61-1.18-4.25-3.58-6.17-3.6-1.45-.01-4.57,1.46-6.07,2.1-10.25,4.32-20.2,9.61-30.39,14.09-2.19,1.08-2.98,3.37-3.7,5.52-2.25,6.74-2.31,14.77-4.06,21.7h-40.95c-2.43,0,.41,4.7-.27,5.97h45.29c.4,0,1.07-1.51,1.22-2.04,1.37-4.72,2.56-23.76,5.4-26.2l32.44-14.65,2.09.65,18.39,14.18c5.52,2.71,5.51.1,8.51-2.62,8.34-7.57,17.03-15.7,24.98-23.57.18-.18.37-.35.54-.54.2-.22,1.89-3.04,1.95-3.25.72-2.52-1.19-2.54-1.96-3.67Z" style="fill: #d86e27;"/>
  <path d="M98.22,263.07c6.75,2.91,19.54,10.86,25.7,12.32,1.22.29,2.26-.61,3.53-.37,1.21.22,2.1,1.91,3.65,1.55.29-.27-1.41-4.29-1.9-4.87-.12-.14-2.59-2-2.84-2.15-7.32-4.19-21.62-10.66-29.59-13.68-5.16-1.96-5.47-2.18-10.08.96-5.26,3.59-9.85,8.37-15.04,12.08l-3.05.53-23.72-24.31c-1.12.77-1.76,2.53-3.25,2.71.28,2.95,4.19,3.86,4.88,7.05.17.19.37.35.54.54l21.13,21.46c3.27,1.1,5.66-2.89,8.02-4.63l3.94-2.18c.2-.17.35-.38.54-.54,2.11-1.8,5.24-5.25,8.02-7.03,4.22-2.69,5.23-1.27,9.55.59Z" style="fill: #d86e27;"/>
  <path d="M41.6,247.82c1.49-.18,2.13-1.94,3.25-2.71l12.94-20.44c.26-.86-1.84-1.48-2.43-1.73-1.14-.47-2.33-.69-3.45-1.16l-14.36,20.64c-1.18,3.22.99,3.7,2.42,5.4l.26-.53c.37.34.85.59,1.36.53Z" style="fill: #fdbe58;"/>
  <path d="M41.6,247.82c-.51.06-.99-.19-1.36-.53l-.26.53c2.17,2.57,4.32,4.66,6.51,7.05-.7-3.19-4.6-4.1-4.88-7.05Z" style="fill: #f79026;"/>
  <path d="M68.15,276.88l-21.13-21.46c5.87,6.43,11.97,14.17,18.47,19.77.76.66,1.13,2.09,1.96,2.38,3.77,1.32,9.86-5.12,12.66-7.51l-3.94,2.18c-2.37,1.74-4.75,5.73-8.02,4.63Z" style="fill: #f79026;"/>
  <path d="M201.61,230.46c-.14-.95-1.61.24-1.99.46-14.06,8.28-34.95,15.39-51.47,13.14-1.75-.24-1.84-1.24-2.81-1.53-1.93-.59-4.89-.3-6.69-.9-1.31-.44-1.46-1.82-1.97-1.95-1.55-.38-3.26.29-5.43-.41-3.45-1.11-1.63-2.68-1.77-2.83-.31-.34-7.14-2.32-8.67-3.01-6.01-2.72-10.82-5.81-15.75-10.02-.19-.16-.35-.37-.54-.54-3-.94-5.4-4.33-7.59-6.51-.36-.35-.74-.73-1.08-1.08-11.42-11.67-19.23-25.77-22.08-42.74-4.72-28.05,6.69-60.84,29.67-77.14.51-.36,1.1-.72,1.63-1.08.73-.66,1.57-1.79,2.31-2.33,27.68-20.16,68.34-19.26,96,.71l3.12,3.25c.19.15.35.38.54.54.94.1,1.74.45,2.45,1.07,8.95,7.81,16.52,18.99,21.13,29.86.5,1.19,1.69,5.75,1.92,5.96.26.23,1.44-.78,2.17-.32.61.38,1.12,2.4,2.56,2.63l3.4,14.5c-2.06-25.84-16.16-50.16-37.7-64.54-46.79-31.24-111.39-10.32-129.9,43.66-17.11,49.9,11.2,103.98,63.47,114.18,22.7,4.43,45.77-.29,65.09-13.02Z" style="fill: #d86e27;"/>
  <path d="M240.67,155.07c.33,7.5-.76,14.95-2.44,22.24-4.91,21.36-18.35,41.11-36.62,53.15-19.32,12.73-42.39,17.45-65.09,13.02-1.09,1.56-.26.8.54,1.34,7.25,4.88,13.29,5.14,21.97,4.62,34.37-2.05,65.83-25.24,78.65-56.95,3.58-8.85,8.26-27.46,4.22-36.23-.35-.77.32-1.48-1.23-1.19Z" style="fill: #fdbe58;"/>
  <path d="M12.31,177.31c.31,2.43-.95,4.05,2.26,5.06,4.08,1.29,16.95,4.3,20.95,4.6,1.99.15,3.17-1.1,5.23.18.38.23,3.78,3.66,4.03,4.08,1.6,2.69.64,4.88,1.46,7.21.52,1.49,2.16,2.07,2.88,3.09,1.45,2.06,2.18,4.23,3.31,6.42.51.98.37.72,1.39,1.35-2.78-6.59-5.39-13.36-8.31-19.89-2.55-5.68-2.53-6.62-8.77-8.58-3.95-1.24-14.63-3.88-18.45-4.06-1.15-.05-4.22,1.14-5.97.54Z" style="fill: #d86e27;"/>
  <path d="M271.61,80.47c.32-1.52-3.78-3.75-4.89-3.25-3.95,5.15-9.81,9.5-13.56,14.67-4.02,5.54-2.7,7.75.8,13.27.59-1.64-.95-2.73-.86-4.6.02-.44,1.03-3.88,1.19-4.01.41-.34,2.7.32,3.74-.61.03-.07.11-.18.2-.3.27-.48.64-1.37,1.14-1.88,4.16-4.33,8.74-8.49,12.24-13.3Z" style="fill: #d86e27;"/>
  <path d="M258.23,95.65c-.09.12-.17.22-.2.3.06-.05.13-.16.2-.3Z" style="fill: #d86e27;"/>
  <path d="M135.44,33.57c1.49-2.14,1.31-13.44,3.05-14.03l37.6-.04c1.15,6.71,2.44,13.44,4.09,20.05.54,2.19.86,5.52,2.44,7.04l-5.98-27.81c-.26-.62-1.04-.35-1.06-.4l-37.62.62c-1.86.63-2.39,12.32-2.52,14.57Z" style="fill: #d86e27;"/>
  <path d="M143.57,239.14c7.51,1.73,16.03,1.48,23.7.08,1.01-.18,2.11.46,1.8-1.16-8.54,1.47-16.85,1.09-25.49,1.08Z" style="fill: #fdbe58;"/>
  <path d="M18.53,142.03c-1.07,1.63-.35,14.98-.1,24.7l.4-24.68,5.43-.56c-.07-.25-.54-.45-.55-.53-1.2-.11-4.55.11-5.17,1.06Z" style="fill: #d86e27;"/>
  <path d="M18.43,166.74l-.15,9.49c.28-1.52.26-5.14.15-9.49Z" style="fill: #d86e27;"/>
  <path d="M259.11,117.91c.33.71.8,2.3,1.62,2.44-1.06-3.19-1.87-7.37-4.33-9.76.51,2.4,1.67,5.09,2.71,7.32Z" style="fill: #d86e27;"/>
  <rect x="254.82" y="105.57" width="1.04" height="4.72" transform="translate(-21.11 128.54) rotate(-27.18)" style="fill: #d86e27;"/>
  <path d="M135.44,34.11c-.73.81-.89,2.19-1.08,3.25,1.71.47,1.04-1.73,1.08-3.25Z" style="fill: #d86e27;"/>
  <path d="M260.74,120.9l2.7,5.96c-.54-1.92-1.04-4.69-2.7-5.96Z" style="fill: #d86e27;"/>
  <path d="M54.89,211.48v.54c.35-.18.35-.36,0-.54Z" style="fill: #d86e27;"/>
  <path d="M54.35,209.85v.54c.35-.18.35-.36,0-.54Z" style="fill: #d86e27;"/>
  <path d="M182.9,47.67v.54c.35-.18.35-.36,0-.54Z" style="fill: #d86e27;"/>
  <path d="M90.61,108.6c3.63-4.54,9.11-8.6,12.83-13.19-22.98,16.29-34.39,49.08-29.67,77.14,2.85,16.97,10.67,31.07,22.08,42.74l-10.74-14.48c-16.95-27.59-14.78-66.84,5.51-92.2Z" style="fill: #f79026;"/>
  <path d="M206.49,95.95l-3.12-3.25c-27.66-19.97-68.32-20.87-96-.71-.74.54-1.58,1.67-2.31,2.33,31.45-21.38,70.96-22.53,101.43,1.63Z" style="fill: #f79026;"/>
  <path d="M104.52,222.87c-2.43-2.14-4.83-4.79-7.59-6.51,2.2,2.18,4.59,5.57,7.59,6.51Z" style="fill: #f79026;"/>
  <g>
    <path d="M183.39,97.51c4.35,2.07,8.45,4.59,12.23,7.5-3.79-2.91-7.88-5.43-12.23-7.5Z" style="fill: none;"/>
    <path d="M173.6,93.77c.76.23,1.51.46,2.26.72-.75-.25-1.5-.49-2.26-.72Z" style="fill: none;"/>
    <path d="M163.04,91.55c.75.1,1.5.2,2.25.32-.75-.12-1.5-.22-2.25-.32Z" style="fill: none;"/>
    <path d="M195.82,105.16c.87.67,1.73,1.37,2.56,2.08-.84-.71-1.69-1.41-2.56-2.08Z" style="fill: none;"/>
    <path d="M159.22,91.17c.83.06,1.65.12,2.47.21-.82-.09-1.64-.15-2.47-.21Z" style="fill: none;"/>
    <path d="M198.64,107.46c.82.71,1.62,1.43,2.4,2.17-.78-.74-1.58-1.47-2.4-2.17Z" style="fill: none;"/>
    <path d="M170.18,92.85c.73.18,1.46.36,2.19.56-.72-.2-1.45-.39-2.19-.56Z" style="fill: none;"/>
    <path d="M176.95,94.85c.82.29,1.63.6,2.43.92-.8-.32-1.61-.63-2.43-.92Z" style="fill: none;"/>
    <path d="M180.21,96.1c.96.4,1.92.82,2.86,1.26-.94-.44-1.89-.86-2.86-1.26Z" style="fill: none;"/>
    <path d="M154.36,90.97h0c1.24,0,2.47.04,3.69.1-1.22-.07-2.45-.1-3.69-.1Z" style="fill: none;"/>
    <path d="M135.58,93.63c2.75-.79,5.57-1.44,8.45-1.88-2.88.44-5.7,1.08-8.45,1.88Z" style="fill: none;"/>
    <path d="M203.77,112.38c.8.85,1.58,1.72,2.34,2.62-.76-.89-1.54-1.76-2.34-2.62Z" style="fill: none;"/>
    <path d="M206.12,115l-5.39,4.11c-10.33-11.91-28.83-19.65-45.8-19.65-31.04,0-60.77,27.51-60.77,58.55,0,6.09.72,11.78,1.08,17.56.44,7.1,1.91,9.91,1.69,19.15l-3.82-6.6s-.03-.06-.05-.09c10.93,22.88,34.3,38.74,61.3,38.74,37.44,0,67.89-30.46,67.89-67.89,0-16.71-6.08-32.02-16.13-43.87Z" style="fill: none;"/>
    <path d="M132.66,94.55c-20.16,6.82-36.09,22.86-42.77,43.08,6.68-20.22,22.61-36.26,42.77-43.08Z" style="fill: none;"/>
    <path d="M201.28,109.87c.8.76,1.57,1.54,2.33,2.34-.76-.8-1.54-1.58-2.33-2.34Z" style="fill: none;"/>
    <path d="M166.66,92.11c.73.13,1.46.28,2.18.43-.72-.16-1.45-.3-2.18-.43Z" style="fill: none;"/>
    <path d="M154.36,76.97c-45.16,0-81.89,36.74-81.89,81.89s36.74,81.89,81.89,81.89,81.89-36.74,81.89-81.89-36.74-81.89-81.89-81.89ZM154.36,226.76c-27.01,0-50.37-15.85-61.3-38.74-4.99-9.15-6.59-14.98-6.59-29.16,0-4.68.48-9.25,1.38-13.67.53-2.58,1.22-5.1,2.04-7.57,6.68-20.22,22.61-36.26,42.77-43.08.96-.33,1.94-.63,2.92-.92,2.75-.79,5.57-1.44,8.45-1.88,2.25-.34,4.53-.58,6.84-.7,1.16-.06,2.32-.09,3.49-.09h0c1.24,0,2.47.04,3.69.1.39.02.78.06,1.17.09.83.06,1.65.12,2.47.21.45.05.9.11,1.35.17.75.1,1.5.2,2.25.32.46.07.92.16,1.37.25.73.13,1.46.28,2.18.43.45.1.89.2,1.33.31.73.18,1.46.36,2.19.56.41.11.83.23,1.24.35.76.22,1.51.47,2.26.72.36.12.73.24,1.08.37.82.29,1.63.6,2.43.92.28.11.56.21.83.33.96.4,1.92.82,2.86,1.26.11.05.21.1.32.15,4.35,2.07,8.45,4.59,12.23,7.5.07.05.13.1.19.15.87.67,1.72,1.37,2.56,2.08.09.07.17.15.26.22.82.71,1.62,1.43,2.4,2.17.08.08.16.15.24.23.8.76,1.57,1.54,2.33,2.34.05.06.11.11.16.17.8.85,1.58,1.72,2.34,2.62,0,0,0,0,0,0h0c10.05,11.84,16.13,27.15,16.13,43.87,0,37.44-30.46,67.89-67.89,67.89Z" style="fill: #362d4c;"/>
    <path d="M96.93,194.71c.22-9.24-1.25-12.04-1.69-19.15-.36-5.77-1.08-11.47-1.08-17.56,0-31.04,29.74-58.55,60.77-58.55,16.97,0,35.47,7.73,45.8,19.65l5.39-4.11s0,0,0,0c-.76-.89-1.54-1.76-2.34-2.62-.05-.06-.11-.11-.16-.17-.76-.8-1.54-1.58-2.33-2.34-.08-.08-.16-.15-.24-.23-.78-.74-1.58-1.47-2.4-2.17-.09-.07-.17-.15-.26-.22-.84-.71-1.69-1.41-2.56-2.08-.07-.05-.13-.1-.19-.15-3.78-2.91-7.88-5.43-12.23-7.5-.11-.05-.21-.1-.32-.15-.94-.44-1.89-.86-2.86-1.26-.27-.11-.55-.22-.83-.33-.8-.32-1.61-.63-2.43-.92-.36-.13-.72-.25-1.08-.37-.75-.25-1.5-.49-2.26-.72-.41-.12-.82-.24-1.24-.35-.72-.2-1.45-.39-2.19-.56-.44-.11-.88-.21-1.33-.31-.72-.16-1.45-.3-2.18-.43-.46-.08-.91-.17-1.37-.25-.74-.12-1.5-.22-2.25-.32-.45-.06-.9-.12-1.35-.17-.82-.09-1.64-.15-2.47-.21-.39-.03-.78-.07-1.17-.09-1.22-.07-2.45-.1-3.69-.1-1.17,0-2.33.03-3.49.09-2.31.12-4.59.35-6.84.7-2.88.44-5.7,1.08-8.45,1.88-.98.28-1.96.59-2.92.92-20.16,6.82-36.09,22.86-42.77,43.08-.81,2.47-1.51,4.99-2.04,7.57-.91,4.42-1.38,8.99-1.38,13.67,0,10.43.96,20.21,6.59,29.16.02.03.03.06.05.09l3.82,6.6Z" style="fill: #af92c5;"/>
    <path d="M161.69,91.37c.45.05.9.11,1.35.17-.45-.06-.9-.12-1.35-.17Z" style="fill: #af92c5;"/>
    <path d="M132.66,94.55c.96-.33,1.94-.63,2.92-.92-.98.28-1.96.59-2.92.92Z" style="fill: #af92c5;"/>
    <path d="M158.05,91.08c.39.02.78.06,1.17.09-.39-.03-.78-.07-1.17-.09Z" style="fill: #af92c5;"/>
    <path d="M87.85,145.2c.53-2.58,1.22-5.1,2.04-7.57-.81,2.47-1.51,4.99-2.04,7.57Z" style="fill: #af92c5;"/>
    <path d="M154.36,90.97c-1.17,0-2.33.03-3.49.09,1.16-.06,2.32-.09,3.49-.09h0Z" style="fill: #af92c5;"/>
    <polygon points="206.12 115 206.11 114.99 206.12 115 206.12 115" style="fill: #af92c5;"/>
    <path d="M183.07,97.36c.11.05.21.1.32.15-.11-.05-.21-.1-.32-.15Z" style="fill: #af92c5;"/>
    <path d="M198.38,107.24c.09.07.17.15.26.22-.09-.07-.17-.15-.26-.22Z" style="fill: #af92c5;"/>
    <path d="M195.62,105c.07.05.13.1.19.15-.07-.05-.13-.1-.19-.15Z" style="fill: #af92c5;"/>
    <path d="M203.61,112.21c.05.06.11.11.16.17-.05-.06-.11-.11-.16-.17Z" style="fill: #af92c5;"/>
    <path d="M201.04,109.64c.08.08.16.15.24.23-.08-.08-.16-.15-.24-.23Z" style="fill: #af92c5;"/>
    <path d="M179.38,95.77c.28.11.56.21.83.33-.27-.11-.55-.22-.83-.33Z" style="fill: #af92c5;"/>
    <path d="M165.29,91.86c.46.07.92.16,1.37.25-.46-.08-.91-.17-1.37-.25Z" style="fill: #af92c5;"/>
    <path d="M172.37,93.42c.41.11.83.23,1.24.35-.41-.12-.82-.24-1.24-.35Z" style="fill: #af92c5;"/>
    <path d="M168.85,92.54c.45.1.89.2,1.33.31-.44-.11-.88-.21-1.33-.31Z" style="fill: #af92c5;"/>
    <path d="M175.86,94.48c.36.12.73.24,1.08.37-.36-.13-.72-.25-1.08-.37Z" style="fill: #af92c5;"/>
  </g>
  <path d="M310.5,134.87c-.69-5.05-3.77-8.35-8.46-9.66l-5.03-1.01-9.12-1.71v-.11s-10.18-2.03-10.18-2.03l-7.77-19.77,14.07-16.68c2.67-3.16,2.67-7.79,0-10.95l-27.53-32.71c-.3.05-.43-.5-.63-.69-1.53-1.51-2.7-3.02-3.85-4.39l-1.29-1.47c-2.03-2.15-4.35-3.72-8.67-3.92-9.44-.44-17.54,10.62-25.56,14.67-6.2-1.61-12.19-4.49-18.28-6.63-1.34-.85-1.88-3.25-2.3-4.75-3.16-11.06-1.1-29.3-14.9-32.02h-49.9c-4.62.87-7.26,2.68-9.62,6.92l-5.4,27.83-22.16,8.62c-11.21-7.25-19.96-22.44-34.16-10.29-7.79,6.67-18.28,18.72-25.49,26.58-4.09,4.47-10,9.4-7.98,16.13,1.78,5.92,10.12,14.69,12.8,20.83.39.9.97,1.73.78,2.8l-9.67,20.72c-9.95,4.73-27.19.03-29.84,14.1.91,15.56-1.15,32.36,0,47.77,1.06,14.29,20.16,10.6,29.72,15.03l9.34,20.26-.21,1.31-13.08,21.12c-.45,2.28-.48,4.69.17,6.92,1.31,4.44,15.43,18.14,19.38,22.38,4.48,4.81,14.36,18.06,20.65,18.94,9.79,1.37,17.51-9,24.97-13.98,1.05-.69,2.3-.84,3.47-.37l19.66,8.95c4.76,10.39-.59,28.86,14.27,31.98,16.04-1.02,34.07,1.52,49.88.07,14.73-1.35,12.06-17.14,14.51-27.79.68-2.96.63-3.74,3.43-5.25,5.62-3.03,12.77-5.03,18.52-8.1,1.06-.4,1.7,0,2.62.4,3.68,1.64,10.51,8.37,14.48,11.01,6.04,4.02,11.22,5.14,15.03,3.08l36.66-34.42c.2-.18.38-.37.57-.56,3.46-3.48,2.08-7.14.03-10.01l-13.38-21.84c-1.65-2.56-1.79-5.8-.37-8.5l6.46-12.3c1.09-2.07,3.03-3.55,5.32-4.04l7.86-1.69c.61-.14,1.23-.27,1.85-.4l9.78-2.1c4.65-1.52,8.2-4.31,8.71-11.19,1.12-15.14-.77-31.78-.16-47.07ZM298.16,182.19c-4.93,2.34-15.78,3.1-21.7,4.6-2.38.6-5.27.77-6.73,3.03l-14.19,27.61c-.33,1.15.59,2.25,1.18,3.21,4.93,7.98,12.49,15.61,17.73,23.54,1.03,2.12-1.74,3.27-2.86,4.72-.18.2-.36.36-.54.54-6.52,6.54-13.26,12.95-19.82,19.51-1.51,1.51-2.63,3.33-4.31,4.91-2.26,2.12-5.25,4.94-8.41,3.5-6.02-3.84-13.23-11.72-19.34-14.83-.68-.35-1.29-.71-2.1-.65-10.86,4.74-21.88,9.36-32.3,14.92-2.29,3.85-3.54,25.84-5.61,27.48-.34.27-.71.43-1.15.47l-47.07-.09c-1.05-.32-1.51-1.58-1.77-2.57-1.81-6.95-1.46-16.95-3.64-23.48-.32-.95-.62-1.72-1.5-2.29l-31.23-14.38c-3.74-.3-8.55,6.33-12.14,7.58-.19.16-.35.38-.54.54-2.79,2.38-8.89,8.82-12.66,7.51-.83-.29-1.2-1.72-1.96-2.38-6.5-5.6-12.6-13.35-18.47-19.77-.17-.19-.37-.35-.54-.54-2.19-2.39-4.33-4.48-6.51-7.05-1.43-1.69-3.6-2.17-2.42-5.4l14.36-20.64c.08-1.12.05-2.17-.26-3.27-2.35-8.54-10.2-19.03-12.65-28.03-.28-.59-.69-1.1-1.17-1.54-3.04-2.81-18.95-3.83-24.02-5.81-2.63-1.03-2.43-2.43-2.61-4.99-.7-10.31-.94-28.45-.02-38.6.1-1.08.29-1.11.58-1.84.36-.91.24-1.63,1.61-1.91,7.2-2,16.52-1.92,23.46-4.2,1.1-.36,1.93-.77,2.51-1.83,2.99-8.95,8.26-17.09,11.56-25.87.9-2.4,2.37-4.66,1.11-7.27-3.49-6.43-10.02-13.67-12.88-20.19-.46-1.06-.95-1.55-.71-2.88.29-1.62,12.18-13.26,14.3-15.58,4.46-4.89,8.65-10.19,13.27-14.94,1.96-2.01,2.78-3.23,5.96-2.13,4.35,2.29,15.29,15.71,19.31,15.96l33.45-12.06c1.48-.65,2.12-2,2.45-3.51,1.85-8.51,1.96-18.37,3.94-26.98.27-1.3,1.34-1.99,2.55-2.34l45.75.12c1.29.42,1.56,1.2,2,2.34,3.14,8.26,3.31,21.15,6.25,30.09.31.93.62,1.75,1.51,2.29,8.52,1.91,18.21,7.7,26.52,9.27,3.62.69,4.28-.33,7.03-2.24,4.69-3.26,11.61-10.3,16.11-12.63,1.23-.63,2.35-.8,3.71-.61l18.73,21.15c2.05,2.23,3.99,4.64,5.98,6.77,1.33,1.43,8.08,7.6,8.11,8.67.06,2.18-4.97,5.45-6.5,7.07-1.45,1.54-2.92,3.86-4.36,5.43-1.06,1.15-5.28,4.67-6.29,5.93-.08.13-.14.24-.2.3-.93,2.04-.33,3,.28,4.87,2.21,6.75,8.19,20.69,11.56,26.95.63,1.17,2.77,3.21,2.8,3.43l26.85,5.42v45.06c-.33.55-1.04.35-1.36.51Z" style="fill: #362d4c;"/>
</svg>